<svg width="760.32" height="164.625" viewBox="0 0 201.168 43.557" xmlns="http://www.w3.org/2000/svg"><path style="fill:#2a6200;fill-opacity:1;stroke-width:.264583" d="M2104.36-88.402c-5.31-.953-11.191-4.504-14.349-8.664-1.607-2.117-3.493-5.874-4.145-8.258-.68-2.487-.671-8.666.014-11.378.917-3.621 2.585-6.716 5.415-10.047l.781-.92.545.655c.3.36.549.737.554.836 0 .1-.627 1.026-1.404 2.058-5.548 7.375-6.083 16.21-1.454 24.023 1.215 2.05 5.014 5.805 7.1 7.016 2.048 1.19 5.856 2.461 8.143 2.72l1.646.186V-103.737h2.117v13.494h.884c2.345 0 6.999-1.755 9.844-3.713 2.631-1.81 5.402-5.049 6.988-8.168.998-1.962 1.873-5.326 2.036-7.83.305-4.669-1.185-9.697-4.05-13.662-.487-.674-.881-1.33-.877-1.455.01-.126.256-.526.557-.888l.548-.658.642.79c3.558 4.383 5.22 9.122 5.193 14.814-.018 3.95-.606 6.372-2.435 10.054-2.902 5.843-7.944 10.077-14.18 11.912-2.658.782-7.595 1.097-10.114.645zm-3.433-16.007c-2.205-.594-3.867-1.573-5.234-3.084-1.467-1.622-3.174-4.99-2.686-5.3.47-.299 3.678-.242 5.257.093 3.277.695 5.761 2.725 7.496 6.125.893 1.75.99 2.094.653 2.31-.582.374-3.886.287-5.486-.144zm9.123.186c-.423-.167-.384-.351.427-2.031 2.19-4.533 5.67-6.743 10.62-6.743 1.73 0 2.3.09 2.412.381.233.606-1.624 3.855-3.056 5.347-1.442 1.501-3.51 2.612-5.606 3.01-1.543.292-4.102.312-4.797.036zm.65-9.782c-1.278-.093-1.291-.21-.254-2.3 1.627-3.277 4.428-5.608 7.607-6.331 2.686-.611 5.558-.489 5.558.237 0 .654-1.63 3.554-2.646 4.71-2.399 2.724-5.941 3.995-10.265 3.684zm-10.167-.442c-3.32-.914-6.117-3.742-7.624-7.707-.19-.496-.11-.596.59-.736 2.082-.416 5.906.225 7.755 1.3 2.064 1.202 3.817 3.305 5.01 6.013l.672 1.521-2.577-.023c-1.417-.013-3.139-.179-3.826-.368zm1.286-9.69c-3.987-.582-7.288-3.453-8.757-7.617l-.384-1.087h2.314c4.197 0 6.966 1.2 9.283 4.023 1.085 1.321 2.394 3.691 2.4 4.343 0 .582-2.155.733-4.856.339zm8.364.105c-.327-.063-.595-.18-.595-.262 0-.08.37-.876.82-1.767 1.143-2.257 2.451-3.772 4.277-4.952 2.178-1.408 3.932-1.864 6.809-1.772l2.363.076-.92 1.9c-1.757 3.631-4.731 6.033-8.292 6.698-1.417.264-3.324.298-4.462.08zm-2.649-7.48c-.33-.418-1.044-1.692-1.587-2.83-.93-1.946-.99-2.224-.99-4.604 0-2.444.04-2.614 1.112-4.776 1.311-2.647 1.98-3.386 2.6-2.871.738.612 2.257 3.466 2.652 4.98.746 2.864.33 5.694-1.229 8.375-.738 1.27-1.68 2.53-1.87 2.499-.048-.008-.359-.356-.688-.774z" transform="matrix(.73128 0 0 .73128 -1358.888 107.699)"/><text xml:space="preserve" style="font-size:43.616px;font-family:Arial;-inkscape-font-specification:Arial;fill:#2a6200;fill-opacity:1;stroke-width:8.83112;stroke-linecap:round;stroke-linejoin:round;paint-order:stroke fill markers" x="2020.147" y="-96.927" transform="matrix(.67304 0 0 .79456 -1358.888 107.699)"><tspan style="font-style:normal;font-variant:normal;font-weight:400;font-stretch:normal;font-family:GalianoSerif-Medium;-inkscape-font-specification:GalianoSerif-Medium;fill:#2a6200;fill-opacity:1;stroke-width:8.83112" x="2020.147" y="-96.927">Conecta Agro</tspan></text></svg>