<svg width="300mm" height="101mm" viewBox="0 0 300 101" xmlns="http://www.w3.org/2000/svg"><path style="fill:#2a6200;fill-opacity:1;stroke-width:.18251" d="M1802.4374 10.712012c-2.2412-.7749424-3.9226-2.2607438-4.981-4.4013817-.6651-1.3451199-.6745-1.3957262-.6745-3.5645677 0-2.09511153.027-2.2587085.5821-3.42906214 1.0641-2.24645426 2.5113-3.60759416 4.7189-4.43852056 1.0285-.3871026 1.5566-.4703177 2.9385-.4628389 2.4199.01298 4.2517.7746826 5.875 2.4428412l.7914.8131293-1.089.6615317c-1.2624.76689782-1.4983.80000499-1.9712.2767639-.191-.2115912-.7581-.6001183-1.2602-.8633845-1.222-.6410216-3.3908-.6830626-4.6812-.090717-4.2573 1.95435145-4.2661 8.0592311-.016 10.124777 1.2958.6295653 3.254.6010733 4.6147-.067144.5577-.2738795 1.2071-.7036481 1.4433-.9550607l.4295-.4571069 1.0203.5733506c1.6102.9044544 1.5826.8480152.8011 1.6494944-.9613.9855719-2.2279 1.762518-3.5384 2.170396-1.4303.445137-3.7447.453229-5.0049.01747zm47.2582-.103039c-1.5122-.562262-2.2293-1.0339031-3.3123-2.1792421-1.6796-1.7759621-2.3155-3.5391524-2.2076-6.1218499.066-1.57347289.1442-1.9091279.7397-3.139286.8644-1.7875528 2.147-3.0757527 3.9498-3.9667495 1.3548-.6696867 1.4022-.678643 3.5727-.678643 2.1006 0 2.2557.026521 3.4452.5899939 1.5812.7488283 3.3174 2.4543614 4.0151 3.94368991 2.1738 4.64087179-.066 9.95648299-4.8933 11.61762769-1.5047.517681-3.8173.489125-5.3093-.06554zm4.9151-2.7623838c1.0489-.4393513 2.3909-1.7892465 2.8577-2.8744445.485-1.1272791.5599-2.7447561.1881-4.06109546-.3714-1.31515354-2.115-3.04683594-3.4743-3.45048724-3.353-.9957333-6.5954.9568074-7.16 4.311755-.6149 3.6513419 2.1359 6.7147345 5.7902 6.4485951.6022-.043908 1.4115-.2123123 1.7983-.3743229zm-43.3191 2.9352428c0-.04166.4997-1.2495323 1.1108-2.683846.6107-1.4343458 1.4817-3.5149871 1.9348-4.6236613 1.0641-2.60250412 2.6469-6.460487 3.2232-7.8560738l.4522-1.0950484h3.0423l.8215 1.9421487c2.2855 5.40156 5.8408 14.0670708 5.8408 14.2358928 0 .08605-.7186.156401-1.5967.15608-1.5714-.000544-1.6029-.0096-1.962-.548063-.465-.6973502-1.68-1.5742902-2.6606-1.9202651-.4189-.1479087-1.3544-.2687995-2.0786-.2687995-1.1039 0-1.4975.09038-2.4356.5591204-.6333.3164573-1.4283.9105599-1.8316 1.3688202l-.7128.809716h-1.5739c-.8657 0-1.5738-.03413-1.5738-.07611zm7.1023-5.6301456c1.113-.1883714 2.9587-.029005 3.9156.3382189.3324.1275572.174-.3782329-.8919-2.8450232-.2384-.5521017-.7537-1.76971234-1.1452-2.7058318l-.7112-1.7020238-.3773.88072188c-.8496 1.98385152-2.5997 6.27721002-2.5997 6.37807012 0 .059612.1442.050959.3194-.01891.1757-.070028.8463-.2163024 1.4903-.3252708zm10.0534-2.4120658v-8.1182038l.4107-.095508c.2257-.052465.9847-.074627 1.6864-.049132l1.2758.046232 4.1084 6.03243479 4.108 6.03243161.048-5.96503139.049-5.96505691 1.1382-.085797c.6261-.047241 1.241-.048267 1.3663-.00145.1645.060285.2317.7021785.2402 2.2998024.016 1.2189279.027 4.8443336.045 8.0565324l.033 5.8403123H1839.517l-1.4743-2.1399505c-.8107-1.176988-2.624-3.8255793-4.0294-5.8857729-1.4052-2.06022556-2.6166-3.745904-2.6921-3.7460002-.075-.0000961-.1362 2.669039-.1362 5.9313954v5.9315722h-2.7375zm30.8496 7.9813164c0-.07515 1.5021-3.7388685 3.3308-8.1413238l3.3254-8.0044423 1.4108-.039132c.7757-.021441 1.4789.00721 1.5624.06522.1089.074932 5.7154 13.4060586 6.7408 16.0283211.069.171914-.3035.228145-1.5041.228145h-1.5935l-.7128-.8097c-.4035-.4582767-1.1983-1.0523633-1.8316-1.3688207-.933-.4661928-1.3342-.5591204-2.4141-.5591204-.7125 0-1.5797.081566-1.9272.1812402-.8613.2470058-2.189 1.1811382-2.7422 1.9292389l-.4561.617098-1.5971.0049c-.8782.0032-1.5945-.05657-1.5915-.131884zm6.9299-5.5438514c1.0286-.2005182 2.7736-.093103 3.6014.2215425.2554.09711.5054.1357299.5552.085893.075-.075797-1.0065-2.8220435-2.5568-6.4873109l-.3463-.818754-.519 1.27504353c-.2855.70126031-.978 2.37272477-1.5385 3.71438337-.9463 2.2640928-.9902 2.4309267-.6097 2.3221025.2254-.06458.8618-.2053095 1.4137-.3129zm-33.4906-14.402468c-1.9191-.3934361-3.2614-1.1622346-4.6826-2.6821816-2.9998-3.208232-2.8641-8.280689.3064-11.451231 3.3056-3.305708 8.6004-3.268851 11.8578.08259.8133.836599.8762.703473-.7888 1.672278l-.9727.56601-.5787-.559879c-2.1069-2.038782-5.7737-1.819549-7.785.465461-.9318 1.058571-1.5641 2.957735-1.3954 4.18995.2662 1.94112 1.4181 3.602032 3.0713 4.428118 1.8792.939142 4.013.738843 5.8177-.546081.5215-.371524.5342-.418261.5342-1.994887v-1.614448l1.2319-.700121c.6776-.385072 1.2935-.727495 1.369-.760955.075-.03347.1362 1.923276.1362 4.348305v4.4091619l-1.0082-.5459946-1.0081-.5460093-.7755.433491c-1.4715.8224502-3.6467 1.1515542-5.3301.8064654zm15.903-.09985c-4.8671-1.1780466-7.6486-6.3388186-5.9232-10.9897216 2.1621-5.828363 9.5506-7.381276 13.7903-2.898456 3.1483 3.32873 3.1071 8.409751-.095 11.610767-1.2124 1.212332-2.446 1.902221-4.0983 2.2917865-1.3935.3285405-2.2724.3250903-3.6748-.014423zm4.4742-3.2222766c2.0244-1.186349 3.0033-3.010531 2.8535-5.317836-.1379-2.128924-1.1147-3.592858-3.024-4.532826-2.064-1.016054-4.1332-.758433-6.0403.752032-1.5654 1.239942-2.2752 3.92618-1.5857 6.002044.4877 1.468369 2.0721 3.047805 3.5284 3.517079.2747.08841 1.1641.137524 1.9762.108984 1.2046-.04232 1.6273-.139992 2.2919-.529504zm-5.5027-5.248651v-1.82511h.6117c1.4564 0 2.3086.74293 2.3086 2.012595 0 .387347-.1713.741986-.5335 1.10412-.4495.449534-.6793.533486-1.4601.533486h-.9267zm1.9849.825577c.6088-.595324.038-1.920641-.8267-1.920641-.4058 0-.4281.06246-.4281 1.206105v1.2061l.5019-.123039c.2762-.06768.615-.233499.7529-.368509zm.7528.893229c0-.05855.2507-.694961.5567-1.414456.3063-.71948.633-1.492945.7262-1.718806.093-.225863.3265-.410653.5186-.410653.3527 0 .4028.09289 1.4032 2.600775l.4186 1.049426h-.4204c-.2312 0-.5227-.123183-.6477-.273758-.2897-.349364-1.1038-.352392-1.5621-.0058-.3511.265672-.9931.377653-.9931.173284zm2.1802-1.653852c-.3059-.804928-.3971-.862346-.6482-.408999-.376.678422-.3072.891575.2886.891575.5117 0 .5325-.02782.3596-.482576zm-40.999 8.3732351-1.1304-.059564.371-.8584761c.204-.472157.726-1.720837 1.1601-2.774828.4341-1.054007 1.2993-3.148294 1.9225-4.654008.6235-1.505698 1.3642-3.312547 1.6464-4.015204.2822-.702671.7597-1.852481 1.0613-2.55514l.5487-1.277579 1.5372-.05239 1.5373-.05239.3736.873651c.2054.480512 1.5726 3.789255 3.0382 7.352763 1.4657 3.563498 2.8273 6.828149 3.0259 7.254772l.3611.7756532h-3.3255l-.714-.8110442c-1.4321-1.627028-3.6937-2.257571-5.9279-1.65281-.9959.269643-1.3957.504894-2.3227 1.366966-1.2208 1.1353652-1.4788 1.2283623-3.1628 1.1395958zm6.6511-5.6487251c1.0115-.05709 2.0261-.01012 2.5318.117237.4641.116949.8679.188254.8971.158646.046-.04725-.4375-1.244941-2.4045-5.950988-.2646-.633543-.5399-1.085252-.6114-1.003806-.071.08144-.3429.681933-.6028 1.334402-.2603.65247-.8539 2.089737-1.3196 3.193914-.4657 1.104191-.8951 2.123474-.9541 2.265092-.083.199572-.016.226369.3342.119129.2429-.07609 1.2011-.181213 2.1293-.2336zm-20.2124-2.515664v-8.121689h2.9202V-12.13832h4.1781c4.6723 0 4.3998-.08479 4.3998 1.368835 0 1.4727597.4448 1.3688064-5.86 1.3688064h-5.6381zm59.9195 7.8935447c.9347-2.2333417 5.772-13.8705657 6.1261-14.7376657l.4845-1.186317 1.5538-.05209 1.5539-.05209 1.0694 2.607285c1.0389 2.532401 2.2449 5.457631 3.4831 8.447595 1.6216 3.915572 2.0987 5.0843555 2.0987 5.140455 0 .03362-.7034.061007-1.5633.061007h-1.5632l-.8974-.921359c-1.2834-1.317678-2.266-1.72146-4.1891-1.72146-1.9231 0-2.9056.403782-4.1892 1.72146l-.8974.921359h-1.5825c-1.1956 0-1.5596-.055799-1.4874-.2281368zm8.0653-5.3384057c.9034 0 1.9847.06768 2.4028.150329l.7603.150328-.825-1.975421c-.4538-1.086497-1.11-2.672831-1.4583-3.525192-.3483-.852376-.6645-1.58093-.7026-1.61903-.117-.117381-3.0061 6.573082-3.0061 6.962504 0 .08913.2616.09261.5931.0072.3262-.08333 1.3324-.151386 2.2358-.151386zm-18.7037-14.74396c-.662-.334894-.9105-.978747-.9134-2.366352 0-1.111155.033-1.231928.3623-1.231928.3281 0 .3649.121675.3649 1.198305 0 1.386012.2138 1.905502.7822 1.901565.7755-.0058.9471-.281655 1.043-1.678444.069-1.020146.1555-1.330174.3649-1.330174.205 0 .2874.260747.3282 1.034548.109 2.066249-.9394 3.177148-2.3321 2.47248zm-36.5054-1.794452v-1.846357l1.2082.07688c.914.05817 1.2699.160882 1.4602.421168.637.871188.052 1.734525-1.1771 1.734525h-.7614v.730049c0 .60837-.061.73004-.365.73004-.341 0-.3649-.121677-.3649-1.846368zm2.1901-.708776c0-.304185-.1217-.365026-.7302-.365026-.6082 0-.73.06088-.73.365026 0 .304184.1218.365015.73.365015.6085 0 .7302-.06088.7302-.365015zm3.2851.73004v-1.825092h.9005c.4956 0 1.1093.07921 1.3638.176049.6463.245717.804.994025.3411 1.619904l-.3614.489043.4319.68261.4321.68259h-.416c-.2883 0-.5542-.223941-.867-.730039-.248-.401533-.5889-.730051-.757-.730051-.2145 0-.3427.217777-.4292.730051-.077.448828-.2227.730039-.381.730039-.2048 0-.2578-.374951-.2578-1.825104zm2.1901-.740538c0-.32782-.096-.368383-.7593-.31939-.5577.04119-.7712.14089-.8051.375513-.038.262862.098.31939.7593.31939.691 0 .8051-.05325.8051-.375513zm3.4677.740538v-1.825092h1.2776c1.1559 0 1.2775.03474 1.2775.365015 0 .316347-.1218.36501-.9125.36501-.7818 0-.9126.05075-.9126.354528 0 .286479.149.365294.7741.410651.5646.04091.7905.142525.8347.375513.052.26645-.079.319388-.774.319388-.7686 0-.8348.03608-.8348.456277 0 .425866.061.456286.9126.456286.6894 0 .9125.06695.9125.273765 0 .217273-.2635.273762-1.2775.273762h-1.2776zm5.2927-.0087v-1.833428l1.232.05392c.9495.04158 1.232.116741 1.232.327734 0 .201573-.2528.28831-.9582.328928-.7985.04602-.9583.112654-.9583.400153 0 .275261.1571.356321.7743.40111.5646.04091.7905.142524.8345.375511.052.26645-.079.319388-.774.319388h-.8348v.730053c0 .527255-.077.730039-.2736.730039-.2253 0-.2739-.325392-.2739-1.833442zm5.1103 0v-1.833428l1.232.05392c.9495.04158 1.232.116741 1.232.327734 0 .201573-.2527.28831-.9583.328928-.8091.0466-.9581.11049-.9581.410641 0 .268235.1346.36109.5474.378301.9399.03918.9973.06021 1.0605.387832.052.266585-.077.319388-.7732.319388-.7687 0-.8347.03608-.8347.456277 0 .431396.055.456287 1.0038.456287.7706 0 1.0039.06359 1.0039.273765 0 .217273-.2637.273763-1.2776.273763h-1.2777zm5.1492.05393c.042-1.436864.1058-1.779466.3262-1.779466.2211 0 .2838.342603.3259 1.779466.052 1.695338.035 1.779479-.3259 1.779479-.3605 0-.3759-.08413-.3262-1.779479zm4.3413.319389v-1.460081h-.6521c-.5228 0-.64-.06329-.5906-.319386.055-.274207.2801-.319388 1.6076-.319388 1.3278 0 1.5552.04516 1.6079.319388.05.256068-.067.319386-.5906.319386h-.6521v1.460081c0 1.338419-.03 1.46009-.3652 1.46009-.3344 0-.3649-.121675-.3649-1.46009zm10.442-.319389.053-1.779466 1.1134.000733c.673.000356 1.2325.09945 1.4145.250482.376.311939.3919 1.180118.027 1.482691-.3606.299275-.3402.543399.091 1.095067.4487.573596.4538.730038.024.730038-.1953 0-.5469-.311487-.8238-.730038-.294-.444449-.6249-.730051-.8456-.730051-.3012 0-.3624.123423-.3624.730051 0 .612698-.059.730038-.3718.730038-.3518 0-.3686-.09407-.3193-1.779479zm2.2426-.775667c0-.1916-.233-.290609-.776-.329886-.7104-.05142-.7755-.01977-.7755.377288 0 .404466.053.426502.7755.329885.522-.06966.776-.193124.776-.377287zm3.6196 2.295082c.5146-1.341495 1.3005-3.151132 1.4303-3.294782.318-.351431.728.187297 1.4203 1.866618.67 1.625255.6813 1.688015.3065 1.68243-.2137-.0028-.5485-.126387-.7432-.273773-.1948-.14738-.5281-.267956-.7408-.267956s-.546.120569-.7409.267956c-.4663.352627-1.065.36515-.9322.01949zm2.0374-1.682198c-.3062-.729355-.4319-.686962-.7155.241125-.1025.335145-.042.407572.3885.460281.2806.03446.5356.04912.5665.03261.03-.01641-.077-.346772-.2395-.734046z" transform="matrix(2.14352 0 0 2.14352 -3721.3787 74.775812)"/><path style="fill:#2a6200;fill-opacity:1;stroke-width:.113892" d="M1761.1409 11.933177c-.024-.0783-.067-.47701-.095-.886015-.03-.438844-.1481-.934439-.2882-1.2091354-.2648-.519115-.7872-1.17925-.9331-1.17925-.052 0-.1565.186852-.2319.415231-.2003.607288-.073 1.6426824.2792 2.2733114.1626.291024.2958.554706.2958.585966 0 .120998-.7181-.09472-1.0121-.304028-.2833-.201833-.3193-.204645-.4273-.03348-.1067.169267-.2192.172831-1.19.03775-.5897-.08202-1.1147-.189351-1.1666-.238511-.052-.04919.4036-.59525 1.0124-1.213523 3.757-3.8152177 6.8039-8.1061411 9.116-12.8379191.4901-1.002895.9199-1.750831.9747-1.696018.1269.126851.7748 3.051715.7773 3.50854896 0 .286754-.069.382556-.3917.536753-.9852.469826-1.7909 1.64678004-1.957 2.85913604-.083.608664-.013.63996.6992.30964.5421-.251534 1.0717-.788624 1.4714-1.492007l.2911-.51252004V2.7109549l-.4218.07913c-.6408.120221-1.1909.443348-1.706 1.002166-.5233.567754-.7465.929202-.6396 1.036087.2521.252088 1.4842-.04563 2.1853-.528076l.5044-.346987-.074.713781c-.1858 1.7777134-1.1156 4.8735997-1.9341 6.4403291l-.4761.911139-1.2978.03233-1.2978.03233.3065-.401781c.3244-.42534.7448-1.274941.749-1.513681.01-.1954924-.4873-.1786464-.9977.03426-.4978.207631-1.0527.714304-1.5217 1.389407-.3427.493247-.5252.596382-.6047.341676zm.9091-2.7148894c.2935-.883932.1999-2.092705-.2104-2.7125983-.1751-.264604-.3795-.461608-.4542-.437778-.2045.06519-.5239 1.0948313-.5296 1.7069813-.01.833304.6185 2.2575264.9127 2.075724.05-.03059.1761-.31513.2815-.632329zm1.9613.366159c.4847-.24728 1.1691-.947911 1.4426-1.476746.1695-.327763.1663-.338894-.1184-.410337-.7514-.188616-2.1628.566014-2.8276 1.511857-.2892.411429-.3159.503792-.1737.599792.2409.162662 1.1591.03974 1.6771-.224566zm-.6383-2.377795c.3939-.8052653.4289-2.0773477.076-2.7525767-.1447-.27676-.3144-.502838-.377-.502392-.062.000457-.235.250004-.3831.554574-.291.59885-.4317 1.6130344-.3121 2.2504474.074.3976383.4556.9909323.6363.9909323.053 0 .2146-.243441.3602-.540985zm1.7186.06391c.7224-.216427 1.9093-1.4031763 1.9093-1.9090077 0-.174155-.8068-.146218-1.3541.0469-.2594.09153-.6593.309351-.8883.4840424-.4607.351206-1.0604 1.1202083-1.0604 1.3597303 0 .195939.7671.206042 1.3935.01836zm-.3938-1.8306657c.5621-.598381.9094-1.841713.7714-2.761859-.1455-.97045-.5483-.780291-1.2089.570853-.3868.790846-.4567 1.76787-.1571 2.195557.2217.31663.2933.316088.5946-.0048zm5.0366 5.9493211c.7623-.687776 1.018-.769502 1.5945-.509545.542.244442.911.167882 1.388-.288031.39-.3727.7798-.425731 1.2315-.167539.4538.259433.7646.199774 1.2517-.240335.4061-.3669204.5012-.4031294.883-.3364074 1.2922.2258134 1.3537.2204134 1.7444-.152896.4045-.386497.9316-.467181 1.2986-.19878.2588.189249.1272.452167-.1778.355349-.3294-.104526-.9706.148597-1.1778.4649324-.2163.329965-.6297.363964-1.2539.103116-.4977-.207907-.794-.140005-1.2585.288332-.4519.416808-.6103.457075-1.0674.271354-.6055-.246042-1.0742-.198575-1.3898.140771-.411.441697-.729.528396-1.2067.328845-.628-.262407-1.0171-.215457-1.4222.171585-.2434.232532-.4704.340519-.7107.338051l-.3533-.0036.6264-.565177zm.5978.430066c.095-.28599.6273-.368618 1.0564-.163974.5997.286008.9117.240263 1.4059-.206179.4925-.444913.7037-.479876 1.327-.219498.5312.221918.8212.154576 1.2983-.301421.3239-.309416.4264-.346142.7886-.282263 1.2764.225078 1.3098.221201 1.8285-.212158.5028-.42012.7398-.4983234.8703-.287243.086.138597-.2582.562282-.4564.562282-.072 0-.2792.153756-.4592.341681-.3696.385819-.7249.431673-1.3431.173372-.4661-.194746-1.0347-.06318-1.2195.282197-.1791.334644-.7177.464438-1.0984.264708-.4265-.22373-1.0285-.219672-1.2808.0086-.2624.237487-2.7957.274647-2.7176.03985zm3.1913.06343c.1108-.0289.2645-.02698.3416.0043.077.03118-.014.05485-.2014.0525-.188-.0024-.251-.02787-.1402-.05671zm2.0559-.189484c.2165-.325932.6264-.411462 1.0878-.226903.6162.246494.9883.191242 1.4584-.216511l.4267-.370148-.3817.536344-.3819.536349-1.1842-.0097c-1.1775-.0096-1.1833-.01108-1.0251-.24942zm-20.7649-.544809c-.2192-.06151-.5908-.161939-.8257-.223164l-.4271-.111317V2.6224549H1755.6144l-.03 4.2978947c-.034 4.7461774.021 4.4500244-.7701 4.2280464zm16.4575-.525445c-.5823-.232948-.5701-.220184-.4029-.421517.1035-.124767.1985-.140957.3503-.05973.4217.225699.8901.125882 1.3473-.2871224.4785-.432338.7145-.478933 1.1539-.227782.4679.267513.8501.203826 1.3667-.227784.5145-.429832.8065-.482922 1.2528-.227782.4805.274701.8713.207943 1.3332-.227788.4658-.439266.716-.482561 1.323-.228914.2234.09334.4859.139109.5834.101708.2157-.08278.2289.06992.03.342465-.1402.191681-.1683.192001-.5575.0064-.5083-.242365-.8912-.159911-1.3664.294145-.3994.381677-.6748.416573-1.2828.162522-.5063-.211528-.7981-.139409-1.2778.315835-.3164.3002654-.415.3332714-.7972.2668934-1.3213-.2294314-1.3848-.2241214-1.7291.144563-.4066.43525-.7474.505602-1.3266.273852zm-18.8788-.09714-.5423-.166262.03-5.0359431.03-5.03593804 6.1787-.02945c3.3984-.0162 6.1786.01312 6.1786.06516 0 .123967-1.6412 2.63621904-2.6037 3.98536004l-.756 1.059875-.057-1.923372c-.055-1.872148-.065-1.934077-.3638-2.325135-.332-.43478004-.9322-.77549204-1.3662-.77549204-.5437 0-1.2727.481783-1.5445 1.02069104-.2506.496891-.2562.593059-.2562 4.331799v3.8236167l-.6016.5940464c-.3308.326719-.6383.59404-.6833.59404-.045 0-.081-1.9252964-.081-4.2784397 0-2.9391524-.04-4.3563274-.1278-4.5272194-.2377-.462524-.7074-.87198-1.0808-.94203704-.4693-.08803-1.2316.31363704-1.4026.73895304-.073.1825-.1304 1.95182-.149 4.6144764-.019 2.7578553-.072 4.3291517-.1441 4.3480087-.062.01626-.3578-.04527-.656-.136736zm-2.0971-.7248704c-6.5449-2.469701-10.9871-6.8699977-12.9901-12.8679377-.373-1.117103-.4049-1.325703-.4571-2.985235-.062-1.942674.033-2.757283.4935-4.2857689.6526-2.16443 1.7074-3.930264 3.403-5.696875 1.5663-1.631855 3.3273-2.898927 5.6648-4.076097l.8093-.407585 1.2144.29487c4.2149 1.023384 8.7417 3.139485 11.8076 5.519451 2.7813 2.159017 4.76 4.552908 6.0843 7.3611209.7818 1.65763.8511 1.947413.5993 2.50563l-.2057.45557-.037-.427098c-.033-.39231-.065-.427098-.385-.427098-.3186 0-.3428-.02649-.2867-.313203.052-.260655-.2762-1.78852-.4122-1.924451-.097-.09731-.5008 1.675476-.4462 1.960773.05.262708.028.301795-.1369.238583-.1084-.0416-.2479-.07559-.3101-.07559-.062 0-.4062-.279705-.7646-.621567-.6079-.579747-1.4501-1.078534-1.831-1.084319-.299-.0048-.9868-.567628-1.2369-1.012679-.1353-.240673-.4518-.573829-.7034-.74035-.3644-.241105-.4575-.372019-.4575-.642826 0-.226349-.057-.340062-.1709-.340062-.1326 0-.1708-.150499-.1708-.6711659 0-.697674.08-.809431.5788-.809431.1201 0 .2185-.07688.2185-.170837 0-.119319-.1203-.170838-.3987-.170838-.3492 0-.3986-.03528-.3986-.284732 0-.359148-.3118-.383658-.3623-.02848-.028.194554-.1301.269969-.4259.313204-.489.07148-.6153.340965-.1609.343416.5327.003.6241.128686.5854.806282-.031.5390589-.067.6201579-.2912.6520249-.2086.02963-.2563.108723-.2563.42478 0 .338352-.059.418284-.4548.620435-.2923.149067-.5107.365626-.611.60557-.2166.518462-.7583.940556-1.4743 1.148675-.7209.209604-1.5058.750079-1.7691 1.218291-.1042.185391-.3177.36603-.4743.40142-.1566.03541-.3744.08866-.4839.118385-.1411.03824-.1994-.01204-.1994-.171934 0-.124279.052-.24305.1135-.26393.067-.02228-.01-.43811-.1858-1.006049l-.2993-.968083-.2558.93023c-.1407.511623-.2304 1.062579-.1995 1.224337.051.265225.022.294112-.298.294112h-.3541l-.03 7.737116-.03 7.7371071zm21.0543.146761c-.1982-.07929.1609-.491712.4279-.491712.1026 0 .3766-.179372.6091-.398617.4741-.447177.5977-.471049 1.1799-.227788.6168.257705.9062.210316 1.3911-.227781.4747-.428911.8105-.489226 1.2678-.227788.4464.255139.7384.202048 1.2529-.227782.5275-.440735.8128-.48701 1.3502-.21895.467.232984.919.131445 1.3315-.299096.4226-.441097.5591-.426851.3256.03401-.4519.892035-.8749 1.101303-1.5403.761873-.3897-.198774-.5155-.214295-.8481-.10455-.2147.07088-.457.22373-.5381.33966-.2707.386469-.6883.500231-1.0844.295394-.5619-.290548-.9674-.230021-1.513.225825-.5058.422621-.62.436234-1.3073.155864-.4533-.184986-.8331-.08274-1.2804.344714-.3367.3216804-.6702.4085234-1.0244.266729zm.8885-1.322569c.5698-.800357.6278-.832833 1.0924-.611277.6313.30103 1.0242.245429 1.4789-.209298.4348-.434822.8585-.51152 1.2384-.224163.3737.28257.8207.203109 1.3016-.231406.4924-.444913.7038-.479881 1.327-.219498.5279.220605.858.146328 1.3091-.294612.3356-.3280743 1.0234-.4855523 1.0234-.2343263 0 .162897-.3385.4637043-.5218.4637043-.09 0-.253.108306-.3619.240678-.1091.132371-.351.30696-.5377.387975-.2853.123786-.3925.119909-.6713-.02426-.5389-.278686-1.0677-.219641-1.4777.165004-.4793.449579-.7087.514536-1.1007.311789-.5354-.276844-.951-.212615-1.4791.228589-.5376.449109-.6384.468044-1.2134.227787-.6065-.25343-.8959-.211309-1.3693.19931l-.4268.370154zm-14.4632-3.3371207v-3.713361l.3872-.387236c.3248-.32475104.4693-.38723404.8958-.38723404.3493 0 .6069.07736.8224.24691004.5436.427537.628.817132.628 2.897349v1.8987544l-.6083.752897c-.3346.4140933-.9497 1.1246823-1.3668 1.5790893l-.7583.826193zm15.6482 2.4832987c-.5117-.281395-.3768-.480236.2757-.406386.4937.05587.5654.02998.9608-.347919.4724-.4512893.7223-.4969863 1.2436-.2274023.4687.2423223.9961.1311553 1.4056-.296225.3654-.381419.6982-.426081 1.2085-.162199.4478.231587.8913.13018 1.301-.29749.2106-.219828.4356-.3361424.6499-.3361424.42 0 .7685.1866964.7685.4116854 0 .135388-.077.158941-.335.102298-.3744-.08222-.7186.06256-1.1423.480453-.2324.2292993-.3561.2659593-.7118.2110023-1.4322-.2213163-1.3372-.2286013-1.7214.131901-.4864.456209-.6996.512857-1.178.312969-.6431-.268692-.9814-.215367-1.4525.228914-.4683.441644-.7462.484121-1.2726.194541zm.126-.706891c-.039-.06255.266-.6495163.6771-1.3043777.774-1.233007 2.2087-4.009009 2.74-5.30153604 1.4448-3.51481696 2.6163-7.70053396 3.3469-11.95869186.5782-3.370151 1.0281-8.223444 1.0399-11.218384 0-.734287.041-1.076456.1075-.963092.2082.355733 1.137 3.205339 1.5259 4.681565 1.2617 4.789571 1.6737 9.8945249 1.1614 14.3903929-.3889 3.412422-1.6124 8.004278-2.7374 10.273649-.01.01282-.2127-.04581-.4586-.130324-.5211-.179176-.8661-.08702-1.3298.3554334-.2585.2465-.3714.279499-.7403.216168-1.3145-.225674-1.2613-.231984-1.7467.206649-.4936.4459-.7006.48955-1.1373.239872-.5012-.28652-.9785-.212352-1.4657.227781-.4328.3910813-.8437.5101653-.9829.2848953zm6.7555-2.8055837.51-.298868-.072-1.352632c-.041-.74395-.1064-1.63936904-.1476-1.98982304l-.075-.637197-.372.803188c-.6295 1.35907504-1.7685 2.35856704-2.9278 2.56935304-.4781.08692-.4674.112497.287.68225.9325.704423 1.8523.777966 2.7981.223729zm-26.1173-2.661409c-.039-.06264-.016-.113895.05-.113895s.1206.05123.1206.113895c0 .06264-.023.113894-.05.113894-.028 0-.082-.05123-.1206-.113894zm.5126 0c0-.06264.054-.113895.1205-.113895.066 0 .089.05123.05.113895-.039.06264-.093.113894-.1207.113894-.028 0-.05-.05123-.05-.113894zm-2.7963-1.96732404c-.033-.08488-.044-.71479196-.026-1.39981696l.032-1.245493 7.0898-.02932c3.8994-.01613 7.0897-.0092 7.0897.01547 0 .07133-1.0214 2.026194-1.2719 2.43408596-.1249.203584-.2743.370147-.3318.370147-.058 0-.1046-.428723-.1046-.95272396 0-1.125484-.2237-1.552906-.813-1.552906-.7538 0-1.0093.436623-1.0093 1.725381v.78024896h-1.4805v-.85984296c0-.897099-.1804-1.445574-.5177-1.575038-.3702-.142076-.752-.06432-1.0251.208811-.2532.253189-.2795.371328-.2795 1.252815 0 .78918996-.033.97325496-.1709.97325496-.139 0-.1708-.187611-.1708-1.00517696 0-.903439-.026-1.030241-.2636-1.252815-.3502-.328948-.8798-.321885-1.1972.01595-.215.228878-.2476.393918-.2476 1.252815v.98921596h-1.5945v-.97325396c0-.881488-.026-.999627-.2796-1.252815-.3155-.315516-.8107-.366404-1.1508-.118271-.1831.133581-.2308.343903-.2781 1.224342l-.057 1.06305396-.9415.03311c-.7105.02499-.9559-.0048-1.0006-.121208zm2.3407-.79371096c0-.980438.095-1.225192.4756-1.225192.3669 0 .5334.445864.489 1.309759l-.041.79724496-.4618.03504-.4619.03504zm3.3028.03577c0-.917612.1395-1.260949.5126-1.260949.3729 0 .5124.343337.5124 1.260949v.90299796h-1.025zm2.188-.08152c.026-.790448.072-1.009229.2322-1.109866.145-.0912.2536-.0912.3987 0 .16.100637.2057.319418.2321 1.109866l.034.98451896H1759.704zm3.3029 0c.026-.790448.072-1.009229.2322-1.109866.145-.0912.2536-.0912.3986 0 .1601.100637.2058.319418.2323 1.109866l.033.98451896H1763.006zm-11.1389-2.361295c-.033-.08627-.044-.406585-.024-.71183l.035-.554989.8542-.06822c1.1018-.08799 1.4572-.190966 1.5379-.44557.1071-.337226 1.0352-1.022492 1.7806-1.314593.8067-.31616 1.429-.758442 1.6023-1.13883.1044-.22889 1.2115-1.075957 1.4064-1.075957.191 0 1.2012.796481 1.6778 1.32292.4445.490875.7017.660208 1.3939.917642.8374.311397 1.7626 1.01894 1.7626 1.347965 0 .219336.3014.303795 1.3666.382822l.9682.07183V-3.4707301l-2.0103.03106-2.0102.03106-.2533-.523375c-.5336-1.102219-1.4143-1.667637-2.7091-1.739211-1.4096-.07791-2.4719.525693-2.9723 1.688914l-.2445.568506h-2.0505c-1.6363 0-2.0627-.03167-2.1107-.156834zm7.514-3.395335c-.035-.0563-.0003-.178232.077-.270963.077-.09273.1199-.180176.095-.194325-.4477-.257572-.5573-.296406-.5573-.197521 0 .06317-.1067.114857-.2373.114857-.1492 0-.2126.0528-.1709.142366.037.0783.095.219238.1295.313204.035.09396.2125.176213.3952.182788.1827.0066.3037-.03414.2688-.09041zm-2.891 3.341474c0-.129693.5946-.936096.8702-1.18014 1.0301-.912277 3.058-.647497 3.9095.510461.4952.673218.4604.766479-.2856.766479-.4758 0-.7162-.06305-.9776-.256253-.2542-.187955-.5035-.25626-.935-.25626-.4278 0-.6864.06993-.9476.25626-.2698.192416-.5181.256253-.9966.256253-.3505 0-.6373-.04359-.6373-.0968zm7.46-13.8120309c-1.201-.11375-3.3385-.6414-4.5534-1.12402-1.8174-.721956-4.0841-2.028163-5.2897-3.048283l-.39-.329966.3726-1.130173c1.4763-4.478962 4.5544-8.189939 8.2659-9.965581 2.0766-.993443 3.5603-1.35306 5.5946-1.355974 3.1375-.0042 5.7897 1.196533 8.4212 3.813414 1.2229 1.216155 2.5555 2.929169 2.5555 3.284957 0 .328322-.5937 1.837692-1.1494 2.922174-2.1058 4.109398-5.651 6.50801-10.2568 6.939448-1.4491.135737-2.0854.134671-3.5705-.0061zm3.2589-4.958434c1.1768-.64052 1.815-1.739163 1.8043-3.106143-.024-3.046019-3.7696-4.509167-5.8499-2.285163-.8318.889194-1.1184 1.909887-.871 3.101482.4538 2.186069 2.9614 3.353961 4.9166 2.289824z" transform="matrix(2.14352 0 0 2.14352 -3721.3787 74.775812)"/></svg>