<svg width="1773.955" height="221.299" viewBox="0 0 469.359 58.552" xmlns="http://www.w3.org/2000/svg"><path style="fill:#2a6200;fill-opacity:1;stroke-width:.264583" d="M2104.36-88.402c-5.31-.953-11.191-4.504-14.349-8.664-1.607-2.117-3.493-5.874-4.145-8.258-.68-2.487-.671-8.666.014-11.378.917-3.621 2.585-6.716 5.415-10.047l.781-.92.545.655c.3.36.549.737.554.836 0 .1-.627 1.026-1.404 2.058-5.548 7.375-6.083 16.21-1.454 24.023 1.215 2.05 5.014 5.805 7.1 7.016 2.048 1.19 5.856 2.461 8.143 2.72l1.646.186V-103.737h2.117v13.494h.884c2.345 0 6.999-1.755 9.844-3.713 2.631-1.81 5.402-5.049 6.988-8.168.998-1.962 1.873-5.326 2.036-7.83.305-4.669-1.185-9.697-4.05-13.662-.487-.674-.881-1.33-.877-1.455.01-.126.256-.526.557-.888l.548-.658.642.79c3.558 4.383 5.22 9.122 5.193 14.814-.018 3.95-.606 6.372-2.435 10.054-2.902 5.843-7.944 10.077-14.18 11.912-2.658.782-7.595 1.097-10.114.645zm-3.433-16.007c-2.205-.594-3.867-1.573-5.234-3.084-1.467-1.622-3.174-4.99-2.686-5.3.47-.299 3.678-.242 5.257.093 3.277.695 5.761 2.725 7.496 6.125.893 1.75.99 2.094.653 2.31-.582.374-3.886.287-5.486-.144zm9.123.186c-.423-.167-.384-.351.427-2.031 2.19-4.533 5.67-6.743 10.62-6.743 1.73 0 2.3.09 2.412.381.233.606-1.624 3.855-3.056 5.347-1.442 1.501-3.51 2.612-5.606 3.01-1.543.292-4.102.312-4.797.036zm.65-9.782c-1.278-.093-1.291-.21-.254-2.3 1.627-3.277 4.428-5.608 7.607-6.331 2.686-.611 5.558-.489 5.558.237 0 .654-1.63 3.554-2.646 4.71-2.399 2.724-5.941 3.995-10.265 3.684zm-10.167-.442c-3.32-.914-6.117-3.742-7.624-7.707-.19-.496-.11-.596.59-.736 2.082-.416 5.906.225 7.755 1.3 2.064 1.202 3.817 3.305 5.01 6.013l.672 1.521-2.577-.023c-1.417-.013-3.139-.179-3.826-.368zm1.286-9.69c-3.987-.582-7.288-3.453-8.757-7.617l-.384-1.087h2.314c4.197 0 6.966 1.2 9.283 4.023 1.085 1.321 2.394 3.691 2.4 4.343 0 .582-2.155.733-4.856.339zm8.364.105c-.327-.063-.595-.18-.595-.262 0-.08.37-.876.82-1.767 1.143-2.257 2.451-3.772 4.277-4.952 2.178-1.408 3.932-1.864 6.809-1.772l2.363.076-.92 1.9c-1.757 3.631-4.731 6.033-8.292 6.698-1.417.264-3.324.298-4.462.08zm-2.649-7.48c-.33-.418-1.044-1.692-1.587-2.83-.93-1.946-.99-2.224-.99-4.604 0-2.444.04-2.614 1.112-4.776 1.311-2.647 1.98-3.386 2.6-2.871.738.612 2.257 3.466 2.652 4.98.746 2.864.33 5.694-1.229 8.375-.738 1.27-1.68 2.53-1.87 2.499-.048-.008-.359-.356-.688-.774z" transform="matrix(.97322 0 0 .97322 -1804.752 143.737)"/><text xml:space="preserve" style="font-size:43.616px;font-family:Arial;-inkscape-font-specification:Arial;fill:#2a6200;fill-opacity:1;stroke-width:8.83112;stroke-linecap:round;stroke-linejoin:round;paint-order:stroke fill markers" x="2020.147" y="-96.927" transform="matrix(.8957 0 0 1.05743 -1804.752 143.737)"><tspan style="font-style:normal;font-variant:normal;font-weight:400;font-stretch:normal;font-family:GalianoSerif-Medium;-inkscape-font-specification:GalianoSerif-Medium;fill:#2a6200;fill-opacity:1;stroke-width:8.83112" x="2020.147" y="-96.927">Conecta Agro</tspan></text><text xml:space="preserve" style="font-size:35.3131px;font-family:GalianoSerif-Medium;-inkscape-font-specification:GalianoSerif-Medium;fill:#2a6200;fill-opacity:1;stroke:none;stroke-width:17.8751;stroke-linecap:round;stroke-linejoin:round;paint-order:stroke fill markers" x="2919.269" y="56.906" transform="matrix(.66578 0 0 1.42261 -1657.353 -37.266)"><tspan style="font-style:normal;font-variant:normal;font-weight:400;font-stretch:normal;font-family:sans-serif;-inkscape-font-specification:sans-serif;stroke:none;stroke-width:17.8751" x="2919.269" y="56.906">|</tspan></text><g><path style="fill:#2a6200;fill-opacity:1;stroke-width:.18251" d="M1802.437 10.712c-2.24-.775-3.922-2.26-4.98-4.401-.666-1.345-.675-1.396-.675-3.565 0-2.095.027-2.259.582-3.429 1.064-2.246 2.511-3.608 4.719-4.439 1.028-.387 1.557-.47 2.938-.462 2.42.013 4.252.774 5.875 2.442l.792.814-1.09.661c-1.262.767-1.497.8-1.97.277-.191-.212-.758-.6-1.26-.863-1.223-.641-3.391-.684-4.682-.091-4.257 1.954-4.266 8.059-.016 10.125 1.296.63 3.254.6 4.615-.068.558-.273 1.207-.703 1.443-.955l.43-.457 1.02.574c1.61.904 1.583.848.801 1.65a8.635 8.635 0 0 1-3.538 2.17c-1.43.445-3.745.453-5.005.017zm47.259-.103c-1.513-.562-2.23-1.034-3.313-2.18-1.68-1.775-2.315-3.538-2.207-6.121.066-1.574.144-1.91.74-3.14.864-1.787 2.146-3.075 3.95-3.966 1.354-.67 1.401-.679 3.572-.679 2.1 0 2.256.027 3.445.59 1.581.749 3.317 2.455 4.015 3.944 2.174 4.64-.066 9.956-4.893 11.618-1.505.517-3.817.489-5.31-.066zm4.915-2.762c1.049-.44 2.39-1.79 2.857-2.875.485-1.127.56-2.745.188-4.061-.37-1.315-2.114-3.047-3.474-3.45-3.353-.996-6.595.956-7.16 4.311-.615 3.652 2.136 6.715 5.79 6.449.603-.044 1.412-.212 1.799-.374zm-43.32 2.935c0-.042.5-1.25 1.111-2.684a424.52 424.52 0 0 0 1.935-4.624c1.064-2.602 2.647-6.46 3.223-7.856l.453-1.095h3.042l.821 1.942c2.286 5.402 5.841 14.067 5.841 14.236 0 .086-.718.157-1.597.156-1.57 0-1.602-.01-1.962-.548-.465-.697-1.68-1.574-2.66-1.92-.419-.148-1.355-.269-2.079-.269-1.104 0-1.497.09-2.435.56-.634.316-1.429.91-1.832 1.368l-.713.81h-1.574c-.865 0-1.573-.034-1.573-.076zm7.103-5.63c1.113-.189 2.959-.03 3.916.338.332.127.174-.378-.892-2.845-.239-.552-.754-1.77-1.146-2.706l-.71-1.702-.378.88c-.85 1.985-2.6 6.278-2.6 6.379 0 .06.144.05.32-.02.175-.07.846-.215 1.49-.324zm10.053-2.412V-5.38l.411-.095c.226-.053.985-.075 1.686-.05l1.276.047 4.109 6.032 4.108 6.033.048-5.965.049-5.965 1.138-.086c.626-.047 1.24-.048 1.366-.001.165.06.232.702.24 2.3.016 1.218.027 4.844.045 8.056l.033 5.84h-3.439l-1.474-2.14c-.811-1.177-2.624-3.825-4.03-5.886-1.405-2.06-2.616-3.745-2.692-3.746-.075 0-.136 2.67-.136 5.932v5.931h-2.738zm30.85 7.98c0-.074 1.502-3.738 3.33-8.14l3.326-8.005 1.41-.039c.777-.021 1.48.007 1.563.065.11.075 5.716 13.406 6.741 16.029.07.171-.303.228-1.504.228h-1.593l-.713-.81c-.404-.458-1.199-1.052-1.832-1.369-.933-.466-1.334-.559-2.414-.559-.713 0-1.58.082-1.927.181-.861.247-2.19 1.181-2.742 1.93l-.456.617-1.598.005c-.878.003-1.594-.057-1.591-.132zm6.93-5.543c1.028-.2 2.773-.093 3.601.222.256.097.506.135.555.086.075-.076-1.006-2.823-2.556-6.488l-.347-.819-.519 1.275c-.285.702-.978 2.373-1.538 3.715-.946 2.264-.99 2.43-.61 2.322.225-.065.862-.205 1.414-.313zm-33.49-14.402c-1.92-.394-3.262-1.163-4.683-2.683-3-3.208-2.865-8.28.306-11.45a8.289 8.289 0 0 1 11.858.082c.813.836.876.703-.789 1.672l-.973.566-.578-.56c-2.107-2.039-5.774-1.82-7.785.466-.932 1.058-1.565 2.957-1.396 4.19.266 1.94 1.418 3.602 3.071 4.428 1.88.939 4.013.739 5.818-.546.522-.372.534-.419.534-1.995v-1.615l1.232-.7a49.09 49.09 0 0 1 1.37-.76c.074-.034.135 1.923.135 4.348v4.409l-1.008-.546-1.008-.546-.775.433c-1.472.823-3.647 1.152-5.33.807zm15.902-.1c-4.867-1.178-7.648-6.34-5.923-10.99 2.162-5.828 9.55-7.381 13.79-2.898 3.149 3.328 3.107 8.41-.095 11.61-1.212 1.213-2.446 1.903-4.098 2.292-1.394.329-2.272.325-3.675-.014zm4.474-3.223c2.025-1.186 3.004-3.01 2.854-5.317-.138-2.13-1.115-3.593-3.024-4.533-2.064-1.016-4.133-.759-6.04.752-1.566 1.24-2.276 3.926-1.586 6.002.488 1.468 2.072 3.048 3.528 3.517.275.088 1.164.138 1.977.109 1.204-.042 1.627-.14 2.291-.53zm-5.502-5.248v-1.825h.611c1.457 0 2.309.743 2.309 2.012 0 .388-.171.742-.533 1.104-.45.45-.68.534-1.46.534h-.927zm1.985.825c.608-.595.038-1.92-.827-1.92-.406 0-.428.062-.428 1.206v1.206l.502-.123c.276-.068.615-.234.753-.369zm.752.894c0-.059.251-.695.557-1.415.306-.72.633-1.493.726-1.719.093-.225.327-.41.519-.41.353 0 .403.093 1.403 2.6l.419 1.05h-.42c-.232 0-.523-.123-.648-.274-.29-.35-1.104-.352-1.562-.006-.352.266-.994.378-.994.174zm2.18-1.654c-.305-.805-.396-.863-.648-.41-.376.68-.307.892.289.892.512 0 .532-.027.36-.482zm-40.998 8.373-1.13-.06.37-.858c.204-.472.726-1.72 1.16-2.775.434-1.054 1.3-3.148 1.923-4.654a551.626 551.626 0 0 0 1.646-4.015c.282-.703.76-1.853 1.062-2.555l.548-1.278 1.537-.052 1.538-.053.373.874c.206.48 1.573 3.79 3.039 7.353 1.465 3.563 2.827 6.828 3.025 7.255l.362.775h-3.326l-.714-.81c-1.432-1.628-3.694-2.258-5.928-1.654-.996.27-1.396.505-2.323 1.367-1.22 1.136-1.478 1.229-3.162 1.14zm6.65-5.649c1.012-.057 2.027-.01 2.533.118.464.116.867.188.897.158.046-.047-.438-1.245-2.405-5.95-.265-.634-.54-1.086-.611-1.005-.071.082-.343.682-.603 1.335-.26.652-.854 2.09-1.32 3.194l-.954 2.265c-.083.2-.016.226.334.119.243-.076 1.202-.181 2.13-.234zm-20.212-2.515v-8.122h2.92v13.506h4.179c4.672 0 4.4-.085 4.4 1.369 0 1.472.444 1.368-5.86 1.368h-5.639zm59.92 7.893c.935-2.233 5.772-13.87 6.126-14.737l.484-1.187 1.554-.052 1.554-.052 1.07 2.607c1.038 2.533 2.244 5.458 3.483 8.448 1.621 3.915 2.098 5.084 2.098 5.14 0 .034-.703.061-1.563.061h-1.563l-.898-.921c-1.283-1.318-2.266-1.721-4.189-1.721s-2.905.403-4.189 1.721l-.897.921h-1.583c-1.195 0-1.56-.055-1.487-.228zm8.065-5.338c.904 0 1.985.067 2.403.15l.76.15-.825-1.975a605.893 605.893 0 0 1-1.458-3.525c-.348-.853-.665-1.581-.703-1.62-.117-.117-3.006 6.574-3.006 6.963 0 .09.262.093.593.007.326-.083 1.333-.15 2.236-.15zm-18.704-14.744c-.662-.335-.91-.979-.913-2.367 0-1.11.033-1.231.362-1.231.328 0 .365.121.365 1.198 0 1.386.214 1.905.782 1.901.776-.005.948-.281 1.043-1.678.07-1.02.156-1.33.365-1.33.205 0 .288.26.329 1.034.109 2.067-.94 3.177-2.333 2.473zm-36.505-1.795v-1.846l1.208.077c.914.058 1.27.16 1.46.421.637.871.052 1.735-1.177 1.735h-.761v.73c0 .608-.061.73-.365.73-.341 0-.365-.122-.365-1.847zm2.19-.708c0-.305-.122-.365-.73-.365s-.73.06-.73.365c0 .304.122.365.73.365s.73-.061.73-.365zm3.285.73v-1.825h.9c.496 0 1.11.079 1.365.176.646.245.804.994.34 1.62l-.36.489.431.682.432.683h-.416c-.288 0-.554-.224-.867-.73-.248-.402-.589-.73-.757-.73-.214 0-.342.217-.429.73-.077.449-.223.73-.381.73-.205 0-.258-.375-.258-1.825zm2.19-.74c0-.329-.096-.37-.759-.32-.558.04-.771.14-.805.375-.038.263.098.32.76.32.69 0 .804-.054.804-.376zm3.468.74v-1.825h1.278c1.156 0 1.277.034 1.277.365 0 .316-.122.365-.912.365-.782 0-.913.05-.913.354 0 .287.149.365.774.41.565.042.79.143.835.376.052.267-.08.32-.774.32-.769 0-.835.036-.835.456 0 .426.061.456.913.456.689 0 .912.067.912.274 0 .217-.263.274-1.277.274h-1.278zm5.293-.01v-1.832l1.232.053c.95.042 1.232.117 1.232.328 0 .202-.253.288-.958.33-.799.045-.959.112-.959.4 0 .274.157.356.774.4.565.041.791.143.835.376.052.266-.079.32-.774.32h-.835v.73c0 .527-.077.73-.273.73-.226 0-.274-.326-.274-1.834zm5.11 0v-1.832l1.232.053c.95.042 1.232.117 1.232.328 0 .202-.253.288-.958.33-.81.046-.958.11-.958.41 0 .268.134.36.547.378.94.04.997.06 1.06.388.053.266-.076.32-.773.32-.768 0-.834.035-.834.456 0 .43.055.456 1.003.456.771 0 1.004.063 1.004.274 0 .217-.263.273-1.277.273h-1.278zm5.15.055c.041-1.437.105-1.78.325-1.78.222 0 .284.343.326 1.78.052 1.695.035 1.78-.326 1.78-.36 0-.375-.085-.326-1.78zm4.34.32v-1.46h-.652c-.522 0-.64-.064-.59-.32.055-.274.28-.32 1.607-.32 1.328 0 1.556.046 1.608.32.05.256-.067.32-.59.32h-.652v1.46c0 1.338-.03 1.46-.366 1.46-.334 0-.364-.122-.364-1.46zm10.443-.32.053-1.78 1.113.001c.673 0 1.232.1 1.414.25.376.313.392 1.18.027 1.483-.36.3-.34.544.091 1.095.45.574.454.73.024.73-.195 0-.546-.311-.823-.73-.294-.444-.625-.73-.846-.73-.301 0-.362.124-.362.73 0 .613-.06.73-.372.73-.352 0-.369-.094-.32-1.78zm2.242-.776c0-.191-.233-.29-.776-.33-.71-.051-.775-.02-.775.378 0 .404.053.426.775.33.522-.07.776-.194.776-.378zm3.62 2.295c.514-1.341 1.3-3.15 1.43-3.295.318-.35.728.188 1.42 1.867.67 1.625.682 1.688.307 1.683-.214-.003-.549-.127-.743-.274-.195-.148-.528-.268-.741-.268-.213 0-.546.12-.741.268-.466.352-1.065.365-.932.02zm2.037-1.682c-.306-.73-.432-.687-.715.241-.103.335-.042.408.388.46.28.035.536.05.567.033.03-.016-.077-.347-.24-.734z" transform="matrix(1.06074 0 0 1.06074 -1526.732 41.244)"/><path style="fill:#2a6200;fill-opacity:1;stroke-width:.113892" d="M1761.14 11.933c-.023-.078-.066-.477-.094-.886-.03-.439-.148-.934-.288-1.209-.265-.52-.787-1.18-.933-1.18-.052 0-.157.188-.232.416-.2.607-.073 1.643.279 2.273.163.291.296.555.296.586 0 .121-.718-.094-1.012-.304-.284-.202-.32-.204-.428-.033-.106.169-.219.173-1.19.038-.59-.082-1.114-.19-1.166-.239-.052-.05.403-.595 1.012-1.214 3.757-3.815 6.804-8.106 9.116-12.837.49-1.003.92-1.751.975-1.696.127.126.775 3.051.777 3.508 0 .287-.069.383-.392.537-.985.47-1.79 1.647-1.957 2.859-.083.609-.013.64.7.31.542-.252 1.071-.789 1.471-1.492l.291-.513v1.854l-.422.08c-.64.12-1.19.442-1.706 1.001-.523.568-.746.93-.64 1.036.253.252 1.485-.045 2.186-.528l.504-.347-.074.714c-.185 1.778-1.115 4.874-1.934 6.44l-.476.912-1.298.032-1.297.032.306-.402c.324-.425.745-1.275.75-1.513.01-.196-.488-.179-.999.034-.497.208-1.052.714-1.521 1.39-.343.493-.525.596-.605.341zm.91-2.715c.294-.884.2-2.092-.21-2.712-.175-.265-.38-.462-.455-.438-.204.065-.523 1.095-.53 1.707-.01.833.62 2.257.914 2.076.05-.031.176-.316.281-.633zm1.961.366c.485-.247 1.17-.947 1.443-1.476.17-.328.166-.34-.118-.41-.752-.19-2.163.565-2.828 1.511-.29.412-.316.504-.174.6.241.163 1.16.04 1.677-.225zm-.638-2.377c.394-.806.429-2.078.076-2.753-.145-.277-.314-.503-.377-.502-.062 0-.235.25-.383.554-.291.6-.432 1.613-.312 2.25.074.398.455.992.636.992.053 0 .215-.244.36-.541zm1.719.064c.722-.217 1.909-1.404 1.909-1.91 0-.174-.807-.146-1.354.047-.26.092-.66.31-.888.484-.461.352-1.06 1.12-1.06 1.36 0 .196.766.206 1.393.019zm-.394-1.831c.562-.598.91-1.842.771-2.762-.145-.97-.548-.78-1.209.57-.387.792-.456 1.769-.157 2.196.222.317.293.317.595-.004zm5.036 5.95c.763-.689 1.018-.77 1.595-.51.542.244.91.168 1.388-.288.39-.373.78-.426 1.231-.168.454.26.765.2 1.252-.24.406-.367.501-.403.883-.337 1.292.226 1.354.22 1.744-.153.405-.386.932-.467 1.3-.198.258.189.126.452-.179.355-.33-.104-.97.149-1.178.465-.216.33-.63.364-1.253.103-.498-.208-.794-.14-1.259.288-.452.417-.61.457-1.067.272-.606-.246-1.074-.199-1.39.14-.411.442-.73.529-1.207.33-.628-.263-1.017-.216-1.422.171-.243.233-.47.34-.71.338l-.354-.004.626-.565zm.598.43c.095-.287.627-.37 1.057-.165.6.286.911.24 1.405-.206.493-.445.704-.48 1.327-.22.532.223.822.155 1.299-.3.324-.31.426-.347.788-.283 1.277.225 1.31.221 1.829-.212.503-.42.74-.499.87-.287.086.138-.258.562-.456.562-.072 0-.28.154-.46.342-.369.385-.724.431-1.343.173-.466-.195-1.034-.063-1.219.282-.18.335-.718.465-1.098.265-.427-.224-1.029-.22-1.281.008-.263.238-2.796.275-2.718.04zm3.191.063a.65.65 0 0 1 .342.004c.077.031-.014.055-.201.053-.188-.003-.251-.028-.14-.057zm2.056-.19c.217-.326.627-.411 1.088-.227.616.247.988.192 1.459-.216l.426-.37-.381.536-.382.536-1.185-.01c-1.177-.009-1.183-.01-1.025-.249zm-20.765-.545c-.219-.061-.59-.162-.825-.223l-.427-.111V2.622h2.052l-.03 4.298c-.034 4.747.021 4.45-.77 4.228zm16.458-.525c-.582-.233-.57-.22-.403-.422.104-.124.199-.14.35-.06.422.226.89.127 1.348-.286.478-.433.714-.48 1.154-.228.467.267.85.204 1.366-.228.515-.43.807-.483 1.253-.228.48.275.871.208 1.333-.228.466-.439.716-.482 1.323-.228.224.093.486.139.584.101.215-.083.229.07.03.343-.14.191-.169.192-.558.006-.508-.242-.891-.16-1.366.294-.4.382-.675.417-1.283.163-.506-.212-.798-.14-1.278.316-.316.3-.415.333-.797.267-1.321-.23-1.385-.225-1.73.144-.406.435-.746.506-1.326.274zm-18.879-.097-.542-.166.03-5.036.03-5.036 6.179-.03c3.398-.016 6.178.013 6.178.065 0 .124-1.641 2.637-2.604 3.986l-.756 1.06-.057-1.924c-.055-1.872-.065-1.934-.363-2.325-.332-.435-.933-.775-1.367-.775-.543 0-1.272.481-1.544 1.02-.25.497-.256.593-.256 4.332v3.824l-.602.594c-.33.327-.638.594-.683.594-.045 0-.081-1.925-.081-4.279 0-2.939-.04-4.356-.128-4.527-.238-.462-.707-.872-1.08-.942-.47-.088-1.232.314-1.403.74-.073.182-.13 1.95-.15 4.614-.018 2.757-.071 4.329-.143 4.348-.062.016-.358-.046-.656-.137zm-2.097-.725c-6.545-2.47-10.987-6.87-12.99-12.868-.373-1.117-.405-1.326-.457-2.985-.062-1.943.033-2.757.493-4.286.653-2.164 1.708-3.93 3.403-5.697 1.567-1.632 3.328-2.899 5.665-4.076l.81-.408 1.214.295c4.215 1.024 8.742 3.14 11.808 5.52 2.78 2.159 4.76 4.553 6.084 7.36.782 1.659.85 1.948.6 2.507l-.207.455-.037-.427c-.033-.392-.065-.427-.385-.427-.318 0-.342-.027-.286-.313.052-.26-.276-1.789-.412-1.925-.097-.097-.501 1.676-.447 1.961.05.263.028.302-.137.239a1.139 1.139 0 0 0-.31-.076c-.062 0-.406-.28-.764-.622-.608-.58-1.45-1.078-1.831-1.084-.3-.005-.987-.567-1.237-1.013a2.592 2.592 0 0 0-.704-.74c-.364-.241-.457-.372-.457-.643 0-.226-.057-.34-.171-.34-.133 0-.17-.15-.17-.67 0-.699.08-.81.578-.81.12 0 .218-.077.218-.171 0-.12-.12-.171-.398-.171-.35 0-.399-.035-.399-.285 0-.359-.312-.383-.362-.028-.028.194-.13.27-.426.313-.489.071-.615.34-.16.343.532.003.623.129.584.807-.03.539-.067.62-.29.652-.21.03-.257.108-.257.424 0 .339-.059.419-.455.62-.292.15-.51.367-.61.606-.217.519-.76.941-1.475 1.15-.721.209-1.506.75-1.77 1.217-.103.186-.317.366-.474.402-.156.035-.374.088-.483.118-.142.038-.2-.012-.2-.172 0-.124.052-.243.114-.264.067-.022-.01-.438-.186-1.006l-.3-.968-.255.93c-.14.512-.23 1.063-.2 1.225.051.265.022.294-.298.294h-.354l-.03 7.737-.03 7.737zm21.054.147c-.198-.08.161-.492.428-.492.103 0 .377-.18.61-.399.473-.447.597-.47 1.18-.227.616.257.905.21 1.39-.228.475-.43.81-.49 1.268-.228.447.255.739.202 1.253-.228.528-.44.813-.487 1.35-.219.467.233.92.132 1.332-.299.422-.44.559-.427.325.034-.452.892-.875 1.102-1.54.762-.39-.199-.515-.214-.848-.104-.215.07-.457.223-.538.34-.27.386-.688.5-1.084.295-.562-.29-.968-.23-1.513.225-.506.423-.62.437-1.308.156-.453-.185-.833-.082-1.28.345-.337.322-.67.409-1.025.267zm.889-1.323c.57-.8.628-.833 1.092-.611.632.3 1.025.245 1.48-.21.434-.434.858-.51 1.238-.224.373.283.82.204 1.301-.231.493-.445.704-.48 1.327-.22.528.221.858.147 1.31-.294.335-.328 1.023-.486 1.023-.234 0 .162-.339.463-.522.463-.09 0-.253.109-.362.241-.11.132-.351.307-.538.388-.285.124-.392.12-.671-.024-.539-.279-1.068-.22-1.478.165-.479.45-.708.514-1.1.311-.536-.276-.951-.212-1.48.23-.537.448-.638.467-1.213.227-.606-.254-.896-.211-1.37.2l-.426.37zm-14.463-3.337V1.575l.387-.388c.325-.324.47-.387.896-.387.349 0 .607.078.822.247.544.428.628.817.628 2.897v1.9l-.608.752c-.335.414-.95 1.125-1.367 1.58l-.758.825zm15.648 2.483c-.512-.281-.377-.48.276-.406.493.056.565.03.96-.348.473-.451.723-.497 1.244-.227.469.242.996.13 1.406-.297.365-.381.698-.426 1.208-.162.448.232.891.13 1.301-.297.21-.22.436-.336.65-.336.42 0 .768.186.768.411 0 .136-.077.16-.335.103-.374-.083-.718.062-1.142.48-.232.23-.356.266-.712.211-1.432-.221-1.337-.229-1.721.132-.486.456-.7.513-1.178.313-.643-.269-.981-.215-1.452.229-.469.441-.747.484-1.273.194zm.126-.707c-.04-.062.266-.65.677-1.304.774-1.233 2.209-4.009 2.74-5.301 1.445-3.515 2.616-7.701 3.347-11.96.578-3.37 1.028-8.223 1.04-11.218 0-.734.04-1.076.107-.963.209.356 1.137 3.206 1.526 4.682 1.262 4.79 1.674 9.894 1.162 14.39-.39 3.413-1.613 8.005-2.738 10.274-.01.013-.212-.046-.458-.13-.521-.18-.866-.087-1.33.355-.259.247-.372.28-.74.216-1.315-.225-1.262-.232-1.747.207-.494.446-.7.49-1.137.24-.502-.287-.979-.213-1.466.228-.433.39-.844.51-.983.284zm6.755-2.805.51-.299-.072-1.353a44.3 44.3 0 0 0-.147-1.99l-.075-.637-.372.804c-.63 1.359-1.769 2.358-2.928 2.569-.478.087-.467.112.287.682.933.705 1.852.778 2.798.224zm-26.117-2.662c-.039-.062-.016-.113.05-.113s.12.05.12.113-.022.114-.05.114c-.027 0-.081-.05-.12-.114zm.513 0c0-.062.054-.113.12-.113s.09.05.05.113c-.039.063-.093.114-.12.114-.028 0-.05-.05-.05-.114zm-2.797-1.967c-.033-.085-.044-.715-.026-1.4l.032-1.245 7.09-.03c3.9-.016 7.09-.009 7.09.016 0 .071-1.021 2.026-1.272 2.434-.125.204-.274.37-.332.37-.058 0-.104-.429-.104-.953 0-1.125-.224-1.552-.813-1.552-.754 0-1.01.436-1.01 1.725v.78h-1.48v-.86c0-.897-.18-1.445-.518-1.575a.936.936 0 0 0-1.025.21c-.253.252-.28.37-.28 1.252 0 .79-.032.973-.17.973-.14 0-.171-.187-.171-1.005 0-.903-.026-1.03-.264-1.253-.35-.329-.88-.322-1.197.016-.215.229-.248.394-.248 1.253v.99h-1.594v-.974c0-.882-.026-1-.28-1.253-.315-.315-.81-.366-1.15-.118-.184.133-.231.344-.279 1.224l-.057 1.063-.941.033c-.71.025-.956-.004-1-.12zm2.341-.794c0-.98.095-1.225.476-1.225.367 0 .533.446.489 1.31l-.041.797-.462.035-.462.035zm3.303.036c0-.917.14-1.26.513-1.26.372 0 .512.343.512 1.26v.903h-1.025zm2.188-.081c.026-.79.072-1.01.232-1.11.145-.091.254-.091.399 0 .16.1.206.32.232 1.11l.034.984h-.929zm3.303 0c.026-.79.072-1.01.232-1.11.145-.091.254-.091.399 0 .16.1.205.32.232 1.11l.033.984h-.929zm-11.14-2.362c-.032-.086-.043-.406-.023-.711l.035-.555.854-.069c1.102-.088 1.457-.19 1.538-.445.107-.337 1.035-1.023 1.78-1.315.807-.316 1.43-.758 1.603-1.139.104-.229 1.211-1.076 1.406-1.076.191 0 1.202.797 1.678 1.323.445.491.702.66 1.394.918.837.311 1.763 1.019 1.763 1.348 0 .22.301.304 1.366.383l.968.072v1.366l-2.01.031-2.01.031-.253-.523c-.534-1.102-1.415-1.668-2.71-1.74-1.41-.077-2.471.526-2.972 1.69l-.244.568h-2.05c-1.637 0-2.063-.031-2.111-.157zm7.515-3.395c-.035-.056 0-.178.077-.27.077-.094.12-.181.095-.195-.448-.258-.557-.297-.557-.198 0 .063-.107.115-.238.115-.149 0-.212.053-.17.142.036.079.094.22.129.314s.212.176.395.182c.183.007.304-.034.269-.09zm-2.891 3.342c0-.13.595-.937.87-1.18 1.03-.913 3.058-.648 3.91.51.495.673.46.766-.286.766-.476 0-.716-.063-.978-.256-.254-.188-.503-.256-.935-.256-.427 0-.686.07-.947.256-.27.192-.518.256-.997.256-.35 0-.637-.043-.637-.096zm7.46-13.813c-1.201-.113-3.339-.64-4.553-1.124-1.818-.721-4.085-2.028-5.29-3.048l-.39-.33.372-1.13c1.477-4.479 4.555-8.19 8.266-9.966 2.077-.993 3.56-1.353 5.595-1.356 3.137-.004 5.79 1.197 8.421 3.814 1.223 1.216 2.556 2.93 2.556 3.285 0 .328-.594 1.838-1.15 2.922-2.106 4.11-5.65 6.508-10.257 6.94-1.449.135-2.085.134-3.57-.007zm3.259-4.958c1.177-.64 1.815-1.74 1.804-3.106-.024-3.046-3.77-4.51-5.85-2.285-.832.889-1.118 1.91-.87 3.101.453 2.186 2.96 3.354 4.916 2.29z" transform="matrix(1.06074 0 0 1.06074 -1526.732 41.244)"/></g></svg>