<?xml version="1.0" encoding="UTF-8"?>
<!DOCTYPE svg PUBLIC "-//W3C//DTD SVG 1.1//EN" "http://www.w3.org/Graphics/SVG/1.1/DTD/svg11.dtd">
<svg xmlns="http://www.w3.org/2000/svg" version="1.1" width="1030px" height="221px" style="shape-rendering:geometricPrecision; text-rendering:geometricPrecision; image-rendering:optimizeQuality; fill-rule:evenodd; clip-rule:evenodd" xmlns:xlink="http://www.w3.org/1999/xlink">
<g><path style="opacity:0.955" fill="#296100" d="M 940.5,-0.5 C 942.167,-0.5 943.833,-0.5 945.5,-0.5C 960.704,20.4184 960.037,40.7517 943.5,60.5C 931.788,48.8539 927.621,34.8539 931,18.5C 933.666,11.8346 936.833,5.50127 940.5,-0.5 Z"/></g>
<g><path style="opacity:0.918" fill="#296100" d="M 553.5,38.5 C 555.888,39.2187 557.388,40.8854 558,43.5C 569.488,79.7866 580.822,116.12 592,152.5C 595.328,154.553 598.828,156.386 602.5,158C 596.833,159.148 591,159.648 585,159.5C 578.965,159.469 572.965,159.136 567,158.5C 566.5,158.167 566,157.833 565.5,157.5C 568.802,156.441 571.802,154.941 574.5,153C 572.202,144.441 569.702,135.941 567,127.5C 562.25,126.196 557.25,125.53 552,125.5C 547.167,125.667 542.333,125.833 537.5,126C 535.899,126.273 534.399,126.773 533,127.5C 530.63,134.944 528.463,142.444 526.5,150C 526.439,151.711 527.106,153.044 528.5,154C 531.657,154.742 534.323,156.242 536.5,158.5C 527.525,159.498 518.525,159.832 509.5,159.5C 509.281,158.325 509.614,157.325 510.5,156.5C 513.944,155.301 517.111,153.634 520,151.5C 531.019,113.753 542.185,76.0862 553.5,38.5 Z M 548.5,72.5 C 554.304,88.078 559.637,103.911 564.5,120C 555,121.472 545.333,121.972 535.5,121.5C 539.677,105.123 544.011,88.79 548.5,72.5 Z"/></g>
<g><path style="opacity:0.945" fill="#296100" d="M -0.5,158.5 C -0.5,158.167 -0.5,157.833 -0.5,157.5C 2.6227,155.885 5.95603,154.885 9.5,154.5C 9.66665,119.165 9.49999,83.8318 9,48.5C 5.8735,47.4024 2.70683,46.4024 -0.5,45.5C -0.5,44.1667 -0.5,42.8333 -0.5,41.5C 9.82944,40.8149 20.1628,40.6482 30.5,41C 31.8333,41.3333 33.1667,41.6667 34.5,42C 35.9255,43.7141 35.5922,45.0475 33.5,46C 31.26,46.977 28.9267,47.477 26.5,47.5C 25.6928,83.1606 25.3595,118.827 25.5,154.5C 29.1794,154.751 32.5128,155.918 35.5,158C 35.1667,158.333 34.8333,158.667 34.5,159C 22.7574,159.811 11.0907,159.644 -0.5,158.5 Z"/></g>
<g><path style="opacity:0.956" fill="#296100" d="M 883.5,52.5 C 908.577,47.9554 926.41,57.2887 937,80.5C 937.667,81.8333 937.667,83.1667 937,84.5C 910.08,89.0884 892.247,78.4218 883.5,52.5 Z"/></g>
<g><path style="opacity:0.954" fill="#296100" d="M 984.5,51.5 C 990.5,51.5 996.5,51.5 1002.5,51.5C 996.037,73.7949 981.204,85.4615 958,86.5C 954.206,86.676 950.706,85.8426 947.5,84C 954.169,66.4854 966.502,55.652 984.5,51.5 Z"/></g>
<g><path style="opacity:0.925" fill="#296100" d="M 365.5,53.5 C 367.472,62.4401 368.139,71.7734 367.5,81.5C 373.94,81.2309 380.273,81.8976 386.5,83.5C 385.624,84.2508 384.624,84.7508 383.5,85C 378.177,85.4994 372.844,85.666 367.5,85.5C 367.276,107.232 368.11,128.899 370,150.5C 375.459,160.075 381.792,160.742 389,152.5C 390.41,148.156 392.41,144.156 395,140.5C 397.053,148.914 394.219,155.414 386.5,160C 372.137,164.662 361.304,160.495 354,147.5C 353.125,126.841 352.625,106.174 352.5,85.5C 348.818,85.6653 345.152,85.4986 341.5,85C 339.519,84.3946 339.185,83.3946 340.5,82C 344.486,81.5012 348.486,81.3345 352.5,81.5C 352.507,74.7675 353.173,68.1008 354.5,61.5C 358.208,58.7767 361.875,56.1101 365.5,53.5 Z"/></g>
<g><path style="opacity:0.92" fill="#296100" d="M 1029.5,119.5 C 1029.5,129.167 1029.5,138.833 1029.5,148.5C 1020.26,188.405 995.596,212.405 955.5,220.5C 946.167,220.5 936.833,220.5 927.5,220.5C 892.006,212.177 868.839,190.511 858,155.5C 851.405,123.704 858.905,95.8711 880.5,72C 883.902,71.7179 885.902,73.3845 886.5,77C 881.297,84.5658 876.464,92.3992 872,100.5C 856.575,139.887 865.408,172.72 898.5,199C 910.77,206.59 924.103,211.09 938.5,212.5C 938.5,195.5 938.5,178.5 938.5,161.5C 941.5,161.5 944.5,161.5 947.5,161.5C 947.5,178.5 947.5,195.5 947.5,212.5C 989.196,206.637 1013.7,182.97 1021,141.5C 1022.38,119.136 1016.21,99.1356 1002.5,81.5C 1003.52,78.304 1005.52,76.4707 1008.5,76C 1019.42,88.6738 1026.42,103.174 1029.5,119.5 Z"/></g>
<g><path style="opacity:0.923" fill="#296100" d="M 660.5,75.5 C 669.072,74.2519 675.572,77.2519 680,84.5C 680.798,86.2588 680.631,87.9255 679.5,89.5C 675.287,90.9114 670.954,91.5781 666.5,91.5C 666.354,87.3934 665.02,83.7267 662.5,80.5C 659.203,78.7879 656.87,79.6212 655.5,83C 665.696,93.0085 668.53,104.842 664,118.5C 659.471,127.354 652.304,132.854 642.5,135C 634.09,135.549 625.757,135.216 617.5,134C 614.574,135.507 612.574,137.841 611.5,141C 612.167,142 612.833,143 613.5,144C 626.464,145.187 639.464,145.853 652.5,146C 668.642,149.748 675.142,159.915 672,176.5C 668.093,191.068 658.593,199.235 643.5,201C 629.091,203.11 616.591,199.277 606,189.5C 600.133,181.763 599.133,173.43 603,164.5C 603.561,163.978 604.228,163.645 605,163.5C 609.098,164.976 613.098,166.642 617,168.5C 615.601,190.776 625.768,199.943 647.5,196C 660.854,191.459 666.021,182.292 663,168.5C 660.144,161.652 654.978,158.819 647.5,160C 635.464,159.838 623.464,159.171 611.5,158C 606.398,156.138 603.732,152.472 603.5,147C 603.664,138.992 607.331,133.326 614.5,130C 603.761,118.746 601.594,105.913 608,91.5C 619.217,78.0704 633.05,74.4037 649.5,80.5C 652.895,77.9643 656.562,76.2976 660.5,75.5 Z M 632.5,81.5 C 641.255,82.0845 646.422,86.7511 648,95.5C 650.735,106.686 649.402,117.353 644,127.5C 637.616,134.375 631.616,134.041 626,126.5C 618.876,113.206 618.876,99.873 626,86.5C 627.965,84.4497 630.132,82.783 632.5,81.5 Z"/></g>
<g><path style="opacity:0.915" fill="#296100" d="M 228.5,78.5 C 246.459,78.281 257.625,86.9477 262,104.5C 263.271,109.754 263.771,115.087 263.5,120.5C 248.5,120.5 233.5,120.5 218.5,120.5C 218.489,132.295 221.322,143.295 227,153.5C 229.523,156.345 232.69,158.012 236.5,158.5C 248.793,156.207 256.126,148.874 258.5,136.5C 259.325,135.614 260.325,135.281 261.5,135.5C 257.948,156.624 245.615,164.791 224.5,160C 213.805,155.134 206.971,146.967 204,135.5C 200.02,119.671 202.02,104.671 210,90.5C 214.727,84.0666 220.893,80.0666 228.5,78.5 Z M 230.5,82.5 C 236.362,82.189 240.196,84.8557 242,90.5C 245.241,98.8708 246.741,107.537 246.5,116.5C 237.167,116.5 227.833,116.5 218.5,116.5C 218.955,106.428 221.122,96.7613 225,87.5C 226.73,85.5981 228.563,83.9314 230.5,82.5 Z"/></g>
<g><path style="opacity:0.921" fill="#296100" d="M 295.5,78.5 C 303.744,77.7692 311.244,79.7692 318,84.5C 319.833,82.6667 321.667,80.8333 323.5,79C 324.944,78.2195 326.277,78.3861 327.5,79.5C 328.779,88.8204 328.779,98.1537 327.5,107.5C 326.325,107.719 325.325,107.386 324.5,106.5C 321.901,98.7951 317.901,91.9618 312.5,86C 303.651,80.2754 296.484,81.7754 291,90.5C 289.961,96.4817 292.127,100.982 297.5,104C 304.337,108.253 311.337,112.253 318.5,116C 333.149,125.268 336.316,137.435 328,152.5C 314.752,163.272 300.752,164.272 286,155.5C 283.978,158.759 281.145,160.259 277.5,160C 276.35,150.911 276.183,141.745 277,132.5C 277.414,132.043 277.914,131.709 278.5,131.5C 281.366,137.561 284.532,143.561 288,149.5C 295.075,158.396 303.575,160.23 313.5,155C 318.579,149.972 319.745,144.139 317,137.5C 307.265,130.047 297.098,123.214 286.5,117C 275.06,105.944 274.726,94.6107 285.5,83C 288.815,81.1702 292.149,79.6702 295.5,78.5 Z"/></g>
<g><path style="opacity:0.936" fill="#296100" d="M 728.5,78.5 C 731.187,78.3359 733.854,78.5026 736.5,79C 738.18,79.3468 739.18,80.3468 739.5,82C 738.597,86.0554 736.93,89.7221 734.5,93C 723.503,89.913 715.67,93.7463 711,104.5C 709.273,121.141 709.106,137.808 710.5,154.5C 713.852,154.784 716.852,155.95 719.5,158C 718.833,158.333 718.167,158.667 717.5,159C 706.402,159.954 695.402,159.62 684.5,158C 687.478,156.118 690.645,154.618 694,153.5C 694.667,131.167 694.667,108.833 694,86.5C 690.45,85.7635 687.283,84.2635 684.5,82C 692.749,80.5943 701.083,80.0943 709.5,80.5C 709.173,85.2137 709.507,89.8804 710.5,94.5C 713.568,89.5412 717.235,85.0412 721.5,81C 723.927,80.0977 726.26,79.2644 728.5,78.5 Z"/></g>
<g><path style="opacity:0.938" fill="#296100" d="M 774.5,78.5 C 791.398,78.5297 802.564,86.5297 808,102.5C 812.529,118.541 810.862,133.874 803,148.5C 792.676,160.957 779.843,164.457 764.5,159C 751.541,149.419 744.874,136.419 744.5,120C 744.82,105.686 750.153,93.6858 760.5,84C 765.017,81.4455 769.684,79.6121 774.5,78.5 Z M 775.5,82.5 C 782.092,82.3781 786.592,85.3781 789,91.5C 794.968,110.509 794.968,129.509 789,148.5C 781.584,161.557 774.251,161.557 767,148.5C 759.37,128.216 760.036,108.216 769,88.5C 771.063,86.2659 773.229,84.2659 775.5,82.5 Z"/></g>
<g><path style="opacity:0.938" fill="#2a6200" d="M 87.5,79.5 C 100.018,78.8384 108.852,84.1718 114,95.5C 115.424,115.126 115.924,134.793 115.5,154.5C 119.179,154.751 122.513,155.918 125.5,158C 125.167,158.333 124.833,158.667 124.5,159C 113.094,159.933 101.761,159.6 90.5,158C 92.8813,156.234 95.548,155.068 98.5,154.5C 99.6664,134.508 99.8331,114.508 99,94.5C 96.5742,84.3674 90.7409,81.5341 81.5,86C 78.0673,89.0422 75.234,92.5422 73,96.5C 72.5,115.83 72.3334,135.164 72.5,154.5C 75.2377,154.851 77.9044,155.518 80.5,156.5C 81.7112,157.274 81.7112,158.107 80.5,159C 69.3419,159.974 58.3419,159.641 47.5,158C 49.8813,156.234 52.548,155.068 55.5,154.5C 56.8333,131.833 56.8333,109.167 55.5,86.5C 53.2706,85.4229 50.9372,84.7563 48.5,84.5C 48.5,83.5 48.5,82.5 48.5,81.5C 56.154,80.9295 63.8207,80.5962 71.5,80.5C 71.4239,88.6096 73.7572,89.4429 78.5,83C 81.5711,81.7043 84.5711,80.5377 87.5,79.5 Z"/></g>
<g><path style="opacity:0.92" fill="#296100" d="M 430.5,78.5 C 446.785,78.2899 457.285,85.9565 462,101.5C 463.886,107.697 464.72,114.03 464.5,120.5C 449.5,120.5 434.5,120.5 419.5,120.5C 419.313,131.349 421.479,141.682 426,151.5C 432.653,159.827 440.153,160.66 448.5,154C 453.805,149.23 457.472,143.396 459.5,136.5C 460.325,135.614 461.325,135.281 462.5,135.5C 461.56,148.944 454.56,157.444 441.5,161C 420.703,162.548 408.203,153.048 404,132.5C 401.059,118.086 403.059,104.42 410,91.5C 412.833,88.6667 415.667,85.8333 418.5,83C 422.432,80.9716 426.432,79.4716 430.5,78.5 Z M 431.5,82.5 C 436.797,82.9501 440.631,85.6168 443,90.5C 445.904,98.9241 447.404,107.591 447.5,116.5C 438.167,116.5 428.833,116.5 419.5,116.5C 419.618,106.363 421.785,96.6963 426,87.5C 427.73,85.5981 429.563,83.9314 431.5,82.5 Z"/></g>
<g><path style="opacity:0.918" fill="#296100" d="M 125.5,80.5 C 135.03,80.2319 144.53,80.5653 154,81.5C 154.833,81.8333 155.667,82.1667 156.5,82.5C 154.142,84.2866 151.475,85.2866 148.5,85.5C 153.802,102.447 159.969,119.113 167,135.5C 173.09,120.233 178.59,104.733 183.5,89C 179.97,86.4044 176.303,84.0711 172.5,82C 180.436,80.47 188.436,80.1367 196.5,81C 197.624,81.2492 198.624,81.7492 199.5,82.5C 196.411,85.1307 192.911,87.1307 189,88.5C 182,109.5 175,130.5 168,151.5C 166.926,155.319 165.093,158.652 162.5,161.5C 160.803,160.636 159.637,159.303 159,157.5C 150,134.5 141,111.5 132,88.5C 128.185,86.3359 124.351,84.1693 120.5,82C 122.382,81.8019 124.048,81.3019 125.5,80.5 Z"/></g>
<g><path style="opacity:0.948" fill="#296100" d="M 887.5,88.5 C 913.942,86.5453 930.942,98.212 938.5,123.5C 910.788,127.056 892.788,115.722 884.5,89.5C 885.791,89.7373 886.791,89.404 887.5,88.5 Z"/></g>
<g><path style="opacity:0.956" fill="#296100" d="M 985.5,88.5 C 990.88,88.3243 996.213,88.6576 1001.5,89.5C 997.224,108.275 985.557,119.441 966.5,123C 960.833,123.667 955.167,123.667 949.5,123C 948.446,121.612 948.28,120.112 949,118.5C 955.705,101.609 967.872,91.6093 985.5,88.5 Z"/></g>
<g><path style="opacity:0.959" fill="#296200" d="M 885.5,126.5 C 912.613,123.364 929.947,134.698 937.5,160.5C 910.906,164.378 893.239,153.711 884.5,128.5C 884.863,127.817 885.196,127.15 885.5,126.5 Z"/></g>
<g><path style="opacity:0.959" fill="#296100" d="M 983.5,126.5 C 989.176,126.334 994.843,126.501 1000.5,127C 1001.06,127.725 1001.39,128.558 1001.5,129.5C 992.205,153.986 974.538,164.319 948.5,160.5C 952.996,141.669 964.663,130.336 983.5,126.5 Z"/></g>
</svg>
